<?xml version="1.0" encoding="UTF-8" standalone="no"?>
<!-- Generator: Adobe Illustrator 16.0.0, SVG Export Plug-In . SVG Version: 6.00 Build 0)  -->

<svg
   xmlns:dc="http://purl.org/dc/elements/1.1/"
   xmlns:cc="http://creativecommons.org/ns#"
   xmlns:rdf="http://www.w3.org/1999/02/22-rdf-syntax-ns#"
   xmlns:svg="http://www.w3.org/2000/svg"
   xmlns="http://www.w3.org/2000/svg"
   xmlns:sodipodi="http://sodipodi.sourceforge.net/DTD/sodipodi-0.dtd"
   xmlns:inkscape="http://www.inkscape.org/namespaces/inkscape"
   version="1.1"
   id="レイヤー_1"
   x="0px"
   y="0px"
   width="128px"
   height="128px"
   viewBox="0 0 128 128"
   enable-background="new 0 0 128 128"
   xml:space="preserve"
   sodipodi:docname="emoji_u1f9d0.svg"
   inkscape:version="0.92.2 (5c3e80d, 2017-08-06)"><metadata
     id="metadata29"><rdf:RDF><cc:Work
         rdf:about=""><dc:format>image/svg+xml</dc:format><dc:type
           rdf:resource="http://purl.org/dc/dcmitype/StillImage" /></cc:Work></rdf:RDF></metadata><defs
     id="defs27" /><sodipodi:namedview
     pagecolor="#ffffff"
     bordercolor="#666666"
     borderopacity="1"
     objecttolerance="10"
     gridtolerance="10"
     guidetolerance="10"
     inkscape:pageopacity="0"
     inkscape:pageshadow="2"
     inkscape:window-width="1853"
     inkscape:window-height="1016"
     id="namedview25"
     showgrid="false"
     inkscape:zoom="2.6074563"
     inkscape:cx="53.629389"
     inkscape:cy="92.032525"
     inkscape:window-x="67"
     inkscape:window-y="27"
     inkscape:window-maximized="1"
     inkscape:current-layer="レイヤー_1"
     showguides="false"
     inkscape:snap-smooth-nodes="true"
     inkscape:measure-start="0,0"
     inkscape:measure-end="0,0"
     inkscape:object-paths="true"
     inkscape:snap-global="false" /><path
     inkscape:connector-curvature="0"
     d="m 64.000001,9.5599981 c -62.410002,0 -63.880002,69.9599999 -63.880002,83.7999999 0,13.860002 28.59,25.080002 63.880002,25.080002 35.28,0 63.879999,-11.22 63.879999,-25.080002 0,-13.84 -1.48,-83.7999999 -63.879999,-83.7999999 z"
     style="fill:#fcc21b"
     id="path1184-8" /><circle
     cx="84.248344"
     cy="47.747799"
     r="19.055939"
     style="fill:#ffffff;fill-opacity:1;stroke:#2f2f2f;stroke-width:3.5;stroke-miterlimit:10;stroke-opacity:1"
     id="circle2037-9" /><path
     id="path1186-9"
     style="fill:#2f2f2f"
     d="m 41.989999,58.769998 c -4.49,0.04 -8.17,-4.27 -8.22,-9.62 -0.05,-5.37 3.55,-9.75 8.04,-9.79 4.48,-0.04 8.17,4.27 8.22,9.64 0.05,5.36 -3.56,9.73 -8.04,9.77 z"
     inkscape:connector-curvature="0" /><path
     id="path1188-2"
     style="fill:#2f2f2f;stroke-width:1"
     d="m 84.946091,57.680258 c 3.97901,-0.009 7.20307,-3.87243 7.19419,-8.62414 -0.009,-4.76948 -3.25071,-8.61526 -7.22971,-8.60638 -3.98789,0.009 -7.22083,3.87243 -7.21195,8.64191 0.009,4.75171 3.25959,8.59749 7.24747,8.58861 z"
     inkscape:connector-curvature="0" /><path
     inkscape:connector-curvature="0"
     d="m 53.398099,99.159278 c 2.02823,-4.06685 12.171322,-9.85547 22.549612,-7.70684"
     style="fill:none;stroke:#2f2f2f;stroke-width:6;stroke-linecap:round;stroke-linejoin:round;stroke-miterlimit:10"
     id="path1192-0"
     sodipodi:nodetypes="cc" /><path
     d="m 73.971031,42.115548 c -0.089,-0.0167 -0.17649,-0.0432 -0.29219,-0.0852 -0.67009,-0.27759 -1.01962,-1.07156 -0.74782,-1.73872 0.0987,-0.25457 2.43958,-6.09671 8.08439,-5.92665 0.72784,0.0254 1.32847,0.63392 1.33201,1.3629 0.005,0.71915 -0.58022,1.30722 -1.30807,1.28179 -3.86401,-0.11886 -5.63525,4.28259 -5.6411,4.32195 -0.229,0.58416 -0.83408,0.89536 -1.42722,0.78396 z"
     id="path3967"
     inkscape:connector-curvature="0"
     style="fill:#2f2f2f" /><path
     sodipodi:nodetypes="csc"
     inkscape:connector-curvature="0"
     d="m 109.63326,106.71696 c 2.48448,-7.551912 -0.52702,-43.479972 -2.08117,-52.036852 -0.34444,-1.89641 -1.22118,-4.39401 -3.96977,-6.06765"
     style="fill:none;stroke:#2f2f2f;stroke-width:3.99999976;stroke-linecap:round;stroke-linejoin:round;stroke-miterlimit:10;stroke-dasharray:none"
     id="path3969" /></svg>