<?xml version="1.0" encoding="UTF-8" standalone="no"?>
<svg
   xmlns:dc="http://purl.org/dc/elements/1.1/"
   xmlns:cc="http://creativecommons.org/ns#"
   xmlns:rdf="http://www.w3.org/1999/02/22-rdf-syntax-ns#"
   xmlns:svg="http://www.w3.org/2000/svg"
   xmlns="http://www.w3.org/2000/svg"
   xmlns:sodipodi="http://sodipodi.sourceforge.net/DTD/sodipodi-0.dtd"
   xmlns:inkscape="http://www.inkscape.org/namespaces/inkscape"
   width="128"
   height="128"
   style="enable-background:new 0 0 128 128;"
   version="1.1"
   id="svg44"
   sodipodi:docname="emoji_u1f9d3.svg"
   inkscape:version="0.92.2 (5c3e80d, 2017-08-06)">
  <metadata
     id="metadata50">
    <rdf:RDF>
      <cc:Work
         rdf:about="">
        <dc:format>image/svg+xml</dc:format>
        <dc:type
           rdf:resource="http://purl.org/dc/dcmitype/StillImage" />
      </cc:Work>
    </rdf:RDF>
  </metadata>
  <defs
     id="defs48" />
  <sodipodi:namedview
     pagecolor="#ffffff"
     bordercolor="#666666"
     borderopacity="1"
     objecttolerance="10"
     gridtolerance="10"
     guidetolerance="10"
     inkscape:pageopacity="0"
     inkscape:pageshadow="2"
     inkscape:window-width="1853"
     inkscape:window-height="1016"
     id="namedview46"
     showgrid="false"
     inkscape:snap-bbox="true"
     inkscape:snap-bbox-edge-midpoints="true"
     inkscape:bbox-nodes="false"
     inkscape:zoom="5.2149125"
     inkscape:cx="18.561687"
     inkscape:cy="83.377312"
     inkscape:window-x="67"
     inkscape:window-y="27"
     inkscape:window-maximized="1"
     inkscape:current-layer="图层_1" />
  <g
     id="图层_1">
    <g
       id="XMLID_578_">
      <path
         id="XMLID_635_"
         d="M106.91,66.04c0,0,7.87,1.36,7.87,9.84c0,7.48-5.74,10.43-11.48,10.43V66.04 H106.91z"
         style="fill:#99674F;" />
      <path
         id="XMLID_634_"
         d="M21.09,66.04c0,0-7.87,1.36-7.87,9.84c0,7.48,5.74,10.43,11.48,10.43V66.04H21.09z "
         style="fill:#99674F;" />
    </g>
    <path
       id="XMLID_577_"
       d="M64,14.87c-33.11,0-42.95,23.36-42.95,58.91c0,35.56,26.86,48.36,42.95,48.36 c16.09,0,42.61-13.14,42.61-48.69C106.62,37.89,97.11,14.87,64,14.87z"
       style="fill:#E1F5FE;" />
    <path
       id="XMLID_576_"
       d="M49.91,77.19c0,3.81-2.55,6.9-5.71,6.9c-3.16,0-5.73-3.09-5.73-6.9 c0-3.82,2.57-6.91,5.73-6.91C47.36,70.28,49.91,73.37,49.91,77.19"
       style="fill:#E1F5FE;" />
    <path
       id="XMLID_575_"
       d="M78.08,77.19c0,3.81,2.56,6.9,5.72,6.9c3.15,0,5.72-3.09,5.72-6.9 c0-3.82-2.57-6.91-5.72-6.91C80.64,70.28,78.08,73.37,78.08,77.19"
       style="fill:#E1F5FE;" />
    <path
       id="XMLID_573_"
       d="M76.38,100.52c-1.73,0-12.38,0-12.38,0s-10.65,0-12.38,0 c-1.42,0-2.03,0.95-1.09,2.38c1.31,2,6.19,5.85,13.47,5.85s12.16-3.85,13.47-5.85C78.41,101.47,77.8,100.52,76.38,100.52z"
       style="fill:#E1F5FE;" />
    <path
       id="XMLID_572_"
       d="M69.98,89.99c-2.11,0.6-4.29,0.89-5.98,0.89c-1.69,0-3.87-0.29-5.98-0.89 c-0.9-0.26-1.25,0.6-0.93,1.17c0.67,1.18,3.36,3.55,6.91,3.55c3.55,0,6.24-2.37,6.91-3.55C71.24,90.59,70.88,89.74,69.98,89.99z"
       style="fill:#E1F5FE;" />
    <path
       id="XMLID_571_"
       d="M64,14.87c-33.11,0-42.95,23.36-42.95,58.91c0,35.56,26.86,48.36,42.95,48.36 c16.09,0,42.61-13.14,42.61-48.69C106.62,37.89,97.11,14.87,64,14.87z"
       style="fill:#BF8F68;" />
    <path
       id="XMLID_570_"
       d="M49.91,77.19c0,3.81-2.55,6.9-5.71,6.9c-3.16,0-5.73-3.09-5.73-6.9 c0-3.82,2.57-6.91,5.73-6.91C47.36,70.28,49.91,73.37,49.91,77.19"
       style="fill:#5D4037;" />
    <path
       id="XMLID_569_"
       d="M78.08,77.19c0,3.81,2.56,6.9,5.72,6.9c3.15,0,5.72-3.09,5.72-6.9 c0-3.82-2.57-6.91-5.72-6.91C80.64,70.28,78.08,73.37,78.08,77.19"
       style="fill:#5D4037;" />
    <path
       id="XMLID_568_"
       d="M76.38,100.52c-1.73,0-12.38,0-12.38,0s-10.65,0-12.38,0 c-1.42,0-2.03,0.95-1.09,2.38c1.31,2,6.19,5.85,13.47,5.85s12.16-3.85,13.47-5.85C78.41,101.47,77.8,100.52,76.38,100.52z"
       style="fill:#49362E;" />
    <path
       id="XMLID_559_"
       d="M69.98,89.99c-2.11,0.6-4.29,0.89-5.98,0.89c-1.69,0-3.87-0.29-5.98-0.89 c-0.9-0.26-1.25,0.6-0.93,1.17c0.67,1.18,3.36,3.55,6.91,3.55c3.55,0,6.24-2.37,6.91-3.55C71.24,90.59,70.88,89.74,69.98,89.99z"
       style="fill:#99674F;" />
    <g
       style="opacity:0.5;"
       id="g23">
      <path
         d=" M49.74,53.21c9.26-2.22,18.92-2.22,28.18,0"
         style="fill:none;stroke:#99674F;stroke-width:3;stroke-linecap:round;stroke-linejoin:round;stroke-miterlimit:10;"
         id="path21" />
    </g>
    <g
       style="opacity:0.5;"
       id="g27">
      <path
         d=" M48.17,62.38c10.3-2.47,21.04-2.47,31.33,0"
         style="fill:none;stroke:#99674F;stroke-width:3;stroke-linecap:round;stroke-linejoin:round;stroke-miterlimit:10;"
         id="path25" />
    </g>
    <g
       id="g41">
      <g
         id="g33">
        <path
           d=" M50.77,92.89c0,0-8.35,4.42-10.52,15.25"
           style="opacity:0.5;fill:none;stroke:#99674F;stroke-width:3;stroke-linecap:round;stroke-linejoin:round;stroke-miterlimit:10;"
           id="path29" />
        <path
           d=" M51.75,84.1c0,0-2.67,4.95-9,4.95"
           style="opacity:0.5;fill:none;stroke:#99674F;stroke-width:3;stroke-linecap:round;stroke-linejoin:round;stroke-miterlimit:10;"
           id="path31" />
      </g>
      <g
         id="g39">
        <path
           d=" M76.9,92.89c0,0,8.35,4.42,10.52,15.25"
           style="opacity:0.5;fill:none;stroke:#99674F;stroke-width:3;stroke-linecap:round;stroke-linejoin:round;stroke-miterlimit:10;"
           id="path35" />
        <path
           d=" M75.92,84.1c0,0,2.67,4.95,9,4.95"
           style="opacity:0.5;fill:none;stroke:#99674F;stroke-width:3;stroke-linecap:round;stroke-linejoin:round;stroke-miterlimit:10;"
           id="path37" />
      </g>
    </g>
    <path
       inkscape:connector-curvature="0"
       d="m 64.240003,1.8504552 c -23.88,0.08 -26.36,11.3800018 -27,11.2500018 -6.88,-1.42 -16.319996,3.89 -21.499996,13.08 -13.3800003,23.75 2.99,42.489995 3.33,44.579995 1.79,10.79 2.67,12.67 2.67,12.67 0,0 0.53,-14.84 8.619996,-24.499995 5.17,-6.17 9.14758,-15.59115 9.14758,-15.59115 0,0 15.50242,1.16115 26.55242,7.67115 9.35,5.5 14.79648,10.75242 14.79648,10.75242 0,0 1.22096,-5.92543 -1.34582,-11.25 -4.10529,-8.5161 -8.44066,-12.00242 -8.44066,-12.00242 0,0 5.79,1.66 13.67,8.79 17.380007,15.75 18.000007,40.379995 18.000007,40.379995 5.95999,-5.54 15.87999,-19 14.66999,-38.999995 -0.61,-9.98 -9.92,-46.9800018 -53.169997,-46.8300018 z"
       style="opacity:1;vector-effect:none;fill:#E0E0E0;fill-opacity:1;stroke-width:1;stroke-linecap:butt;stroke-linejoin:miter;stroke-miterlimit:4;stroke-dasharray:none;stroke-dashoffset:0;stroke-opacity:1"
       id="path52"
       sodipodi:nodetypes="cccccccccsccccc" />
  </g>
</svg>
