<?xml version="1.0" encoding="UTF-8" standalone="no"?>
<svg
   xmlns:dc="http://purl.org/dc/elements/1.1/"
   xmlns:cc="http://creativecommons.org/ns#"
   xmlns:rdf="http://www.w3.org/1999/02/22-rdf-syntax-ns#"
   xmlns:svg="http://www.w3.org/2000/svg"
   xmlns="http://www.w3.org/2000/svg"
   xmlns:sodipodi="http://sodipodi.sourceforge.net/DTD/sodipodi-0.dtd"
   xmlns:inkscape="http://www.inkscape.org/namespaces/inkscape"
   width="128"
   height="128"
   style="enable-background:new 0 0 128 128;"
   version="1.1"
   id="svg16"
   sodipodi:docname="emoji_u1f9d2.svg"
   inkscape:version="0.92.2 (5c3e80d, 2017-08-06)">
  <metadata
     id="metadata22">
    <rdf:RDF>
      <cc:Work
         rdf:about="">
        <dc:format>image/svg+xml</dc:format>
        <dc:type
           rdf:resource="http://purl.org/dc/dcmitype/StillImage" />
      </cc:Work>
    </rdf:RDF>
  </metadata>
  <defs
     id="defs20">
    <radialGradient
       id="SVGID_4_"
       cx="62.815102"
       cy="23.485701"
       gradientUnits="userSpaceOnUse"
       r="45.907001">
      <stop
         offset="0"
         style="stop-color:#6D4C41"
         id="stop63" />
      <stop
         offset="1"
         style="stop-color:#543930"
         id="stop65" />
    </radialGradient>
  </defs>
  <sodipodi:namedview
     pagecolor="#ffffff"
     bordercolor="#666666"
     borderopacity="1"
     objecttolerance="10"
     gridtolerance="10"
     guidetolerance="10"
     inkscape:pageopacity="0"
     inkscape:pageshadow="2"
     inkscape:window-width="1853"
     inkscape:window-height="1016"
     id="namedview18"
     showgrid="false"
     inkscape:zoom="1.84375"
     inkscape:cx="32.025684"
     inkscape:cy="100.05832"
     inkscape:window-x="67"
     inkscape:window-y="27"
     inkscape:window-maximized="1"
     inkscape:current-layer="图层_1"
     inkscape:snap-bbox="true"
     inkscape:bbox-nodes="false"
     inkscape:snap-bbox-edge-midpoints="true" />
  <g
     id="图层_1">
    <g
       id="g992"
       transform="translate(-201.22033,-127.24972)">
      <g
         style="opacity:1;vector-effect:none;fill:#232020;fill-opacity:1;stroke-width:1;stroke-linecap:butt;stroke-linejoin:miter;stroke-miterlimit:4;stroke-dasharray:none;stroke-dashoffset:0;stroke-opacity:1"
         id="g11"
         transform="translate(201.69434,121.42152)">
        <radialGradient
           r="34.023701"
           gradientUnits="userSpaceOnUse"
           gradientTransform="matrix(-0.2008,0.8928,-1.3294,-0.1565,78.9255,-17.7854)"
           cy="25.3797"
           cx="66.7089"
           id="radialGradient1175">
          <stop
             id="stop1171"
             style="stop-color:#6D4C41"
             offset="0" />
          <stop
             id="stop1173"
             style="stop-color:#543930"
             offset="1" />
        </radialGradient>
        <path
           id="path7"
           style="vector-effect:none;fill:#232020;fill-opacity:1;stroke-width:1;stroke-linecap:butt;stroke-linejoin:miter;stroke-miterlimit:4;stroke-dasharray:none;stroke-dashoffset:0;stroke-opacity:1"
           d="M 41.4,98.45 C 39.11,98.2 22.03,96.06 17.16,86.33 5,62.01 17.86,49.93 22.71,45.38 c 0.59,-0.56 1.06,-1 1.4,-1.38 0.47,-0.53 1.28,-0.79 2.4,-0.79 4.25,0 11.11,3.76 13.45,5.69 4.27,3.53 7.09,8.13 8.4,13.69 0.61,2.61 3.15,9.57 5.61,16.3 1.94,5.31 4.3,11.79 4.86,13.92 -2.14,1.15 -10.29,3.7 -17.43,5.64 z"
           inkscape:connector-curvature="0" />
        <path
           id="path9"
           style="vector-effect:none;fill:#232020;fill-opacity:1;stroke-width:1;stroke-linecap:butt;stroke-linejoin:miter;stroke-miterlimit:4;stroke-dasharray:none;stroke-dashoffset:0;stroke-opacity:1"
           d="m 26.51,44.71 c 3.68,0 10.27,3.51 12.49,5.34 4.01,3.31 6.67,7.65 7.9,12.88 0.63,2.69 3.07,9.39 5.66,16.47 1.56,4.27 3.57,9.79 4.46,12.59 -2.97,1.22 -9.76,3.31 -15.75,4.94 C 35.78,96.36 22.39,93.42 18.51,85.66 6.85,62.34 18.68,51.22 23.74,46.47 c 0.62,-0.58 1.11,-1.04 1.49,-1.47 0.16,-0.18 0.65,-0.29 1.28,-0.29 m 0,-3 c -1.45,0 -2.69,0.37 -3.52,1.29 -2.95,3.29 -21.24,15.84 -7.17,44 5.64,11.28 25.7,12.97 25.7,12.97 0,0 18.85,-5.1 18.91,-6.61 C 60.51,91.46 51.03,67.45 49.81,62.25 48.59,57.04 45.89,51.86 40.9,47.75 38.69,45.91 31.39,41.71 26.51,41.71 Z"
           inkscape:connector-curvature="0" />
      </g>
      <g
         style="opacity:1;vector-effect:none;fill:#232020;fill-opacity:1;stroke-width:1;stroke-linecap:butt;stroke-linejoin:miter;stroke-miterlimit:4;stroke-dasharray:none;stroke-dashoffset:0;stroke-opacity:1"
         id="g22"
         transform="translate(201.69434,121.42152)">
        <radialGradient
           r="34.024502"
           gradientUnits="userSpaceOnUse"
           gradientTransform="matrix(-0.2022,0.899,1.3292,0.1152,89.7188,-80.9713)"
           cy="24.5042"
           cx="128.9706"
           id="radialGradient1184">
          <stop
             id="stop1180"
             style="stop-color:#6D4C41"
             offset="0" />
          <stop
             id="stop1182"
             style="stop-color:#543930"
             offset="1" />
        </radialGradient>
        <path
           id="path18"
           style="vector-effect:none;fill:#232020;fill-opacity:1;stroke-width:1;stroke-linecap:butt;stroke-linejoin:miter;stroke-miterlimit:4;stroke-dasharray:none;stroke-dashoffset:0;stroke-opacity:1"
           d="M 86.6,98.45 C 79.44,96.5 71.28,93.95 69.16,92.8 c 0.53,-2.01 2.92,-8.55 4.87,-13.91 2.46,-6.73 4.99,-13.69 5.61,-16.3 1.31,-5.56 4.13,-10.17 8.4,-13.69 2.34,-1.93 9.2,-5.69 13.45,-5.69 1.12,0 1.93,0.27 2.4,0.79 0.34,0.38 0.81,0.82 1.4,1.38 4.84,4.55 17.7,16.63 5.54,40.95 -4.87,9.75 -21.94,11.88 -24.23,12.12 z"
           inkscape:connector-curvature="0" />
        <path
           id="path20"
           style="vector-effect:none;fill:#232020;fill-opacity:1;stroke-width:1;stroke-linecap:butt;stroke-linejoin:miter;stroke-miterlimit:4;stroke-dasharray:none;stroke-dashoffset:0;stroke-opacity:1"
           d="m 101.49,44.71 v 0 c 0.63,0 1.12,0.11 1.28,0.3 0.38,0.43 0.87,0.89 1.49,1.47 5.05,4.75 16.89,15.87 5.23,39.19 C 105.12,94.4 89.69,96.59 86.71,96.94 80.73,95.31 73.94,93.22 70.98,92 c 0.89,-2.79 2.9,-8.31 4.46,-12.59 2.58,-7.09 5.02,-13.78 5.66,-16.47 1.23,-5.23 3.89,-9.57 7.9,-12.88 2.22,-1.84 8.82,-5.35 12.49,-5.35 m 0,-3 c -4.88,0 -12.18,4.2 -14.4,6.03 -4.98,4.12 -7.68,9.3 -8.91,14.5 -1.22,5.21 -10.7,29.22 -10.62,31.11 0.06,1.51 18.91,6.61 18.91,6.61 0,0 20.06,-1.69 25.7,-12.97 14.08,-28.16 -4.21,-40.71 -7.17,-44 -0.81,-0.91 -2.05,-1.28 -3.51,-1.28 z"
           inkscape:connector-curvature="0" />
      </g>
    </g>
    <g
       id="XMLID_416_">
      <path
         id="XMLID_418_"
         d="M108.63,69.78c0,0,8.3,1.44,8.3,10.38c0,7.89-6.06,11-12.11,11V69.78H108.63z"
         style="fill:#35201A;" />
      <path
         id="XMLID_417_"
         d="M19.37,69.78c0,0-8.3,1.44-8.3,10.38c0,7.89,6.06,11,12.11,11V69.78H19.37z"
         style="fill:#35201A;" />
    </g>
    <g
       id="XMLID_413_">
      <path
         d="M95.59,42.95C88.03,33.53,75.02,29.5,64,29.5c-11.01,0-24.03,4.04-31.58,13.45 c-7.39,9.2-11.26,21.09-11.2,37.04c0.06,12.86,3.36,22.75,12.69,30.53c8.64,7.21,18.63,11.1,29.45,11.1 c10.64,0,22.38-3.72,30.7-11.04c9.13-8.03,12.67-17.73,12.73-30.59C106.85,64.03,102.96,52.15,95.59,42.95z"
         style="fill:#70534A;"
         id="path6" />
    </g>
    <path
       id="XMLID_412_"
       d="M70.25,89.64c-2.2,0.62-4.48,0.93-6.25,0.93c-1.76,0-4.05-0.3-6.25-0.93 c-0.94-0.27-1.31,0.63-0.97,1.22c0.7,1.23,3.51,3.71,7.22,3.71c3.71,0,6.52-2.48,7.22-3.71C71.56,90.27,71.19,89.38,70.25,89.64z"
       style="fill:#35201A;" />
    <path
       id="XMLID_407_"
       d="M76.93,99.8c-1.81,0-12.93,0-12.93,0s-11.12,0-12.93,0c-1.48,0-2.12,1-1.14,2.49 c1.37,2.09,6.47,6.11,14.07,6.11s12.7-4.02,14.07-6.11C79.05,100.8,78.42,99.8,76.93,99.8z"
       style="fill:#261819;" />
    <g
       id="XMLID_403_">
      <path
         id="XMLID_405_"
         d="M46.88,80.36c0,3.81-2.55,6.9-5.71,6.9c-3.16,0-5.73-3.09-5.73-6.9 c0-3.82,2.57-6.91,5.73-6.91C44.33,73.45,46.88,76.54,46.88,80.36"
         style="fill:#232020;" />
      <path
         id="XMLID_404_"
         d="M92.56,80.36c0,3.81-2.55,6.9-5.71,6.9c-3.16,0-5.73-3.09-5.73-6.9 c0-3.82,2.57-6.91,5.73-6.91C90,73.45,92.56,76.54,92.56,80.36"
         style="fill:#232020;" />
    </g>
    <path
       inkscape:connector-curvature="0"
       d="m 64.474,5.78 c -23.88,0 -26.36,11.38 -27,11.25 -6.88,-1.42 -16.32,3.89 -21.5,13.08 -12.3999994,22.02 -3.11,33.640004 -1.42,36.880004 0.28,1.98 0.68,3.99 1.16,5.58 1.41,4.77 2.67,11.47 4.25,11 1.39,-0.41 1.74,-4.51 1.56,-10.3 4.18,-0.74 9.39,-4.87 13.12,-10 C 41.104,54.39 42.814,49.44 42.814,49.44 c 0,0 7,7 19.42,10.670004 10.59,3.13 19.24,3.36 19.24,-1.750004 0,-4.92 -3.67,-11.83 -3.67,-11.83 0,0 4.08,6.04 9.67,9.71 3.7,2.43 12.17,12.870004 19.65,14.040004 -0.02,0.21 -0.05,0.42 -0.06,0.62 -0.34,7.03 -0.11,12.22 1.47,12.69 1.58,0.47 2.84,-6.23 4.25,-11 0.39,-1.33 0.74,-2.94 1.01,-4.59 1.18,-1.23 2.26,-2.98 3.19,-5.38 C 124.104,44.39 103.474,5.78 64.474,5.78 Z"
       style="opacity:1;vector-effect:none;fill:#232020;fill-opacity:1;stroke-width:1;stroke-linecap:butt;stroke-linejoin:miter;stroke-miterlimit:4;stroke-dasharray:none;stroke-dashoffset:0;stroke-opacity:1"
       id="path68-5" />
  </g>
</svg>
