<?xml version="1.0" encoding="UTF-8" standalone="no"?>
<svg
   xmlns:dc="http://purl.org/dc/elements/1.1/"
   xmlns:cc="http://creativecommons.org/ns#"
   xmlns:rdf="http://www.w3.org/1999/02/22-rdf-syntax-ns#"
   xmlns:svg="http://www.w3.org/2000/svg"
   xmlns="http://www.w3.org/2000/svg"
   xmlns:sodipodi="http://sodipodi.sourceforge.net/DTD/sodipodi-0.dtd"
   xmlns:inkscape="http://www.inkscape.org/namespaces/inkscape"
   width="128"
   height="128"
   style="enable-background:new 0 0 128 128;"
   version="1.1"
   id="svg18"
   sodipodi:docname="emoji_u1f3f3_200d_1f308.svg"
   inkscape:version="0.92.2 (5c3e80d, 2017-08-06)">
  <metadata
     id="metadata24">
    <rdf:RDF>
      <cc:Work
         rdf:about="">
        <dc:format>image/svg+xml</dc:format>
        <dc:type
           rdf:resource="http://purl.org/dc/dcmitype/StillImage" />
      </cc:Work>
    </rdf:RDF>
  </metadata>
  <defs
     id="defs22" />
  <sodipodi:namedview
     pagecolor="#ffffff"
     bordercolor="#666666"
     borderopacity="1"
     objecttolerance="10"
     gridtolerance="10"
     guidetolerance="10"
     inkscape:pageopacity="0"
     inkscape:pageshadow="2"
     inkscape:window-width="1853"
     inkscape:window-height="1016"
     id="namedview20"
     showgrid="false"
     inkscape:object-paths="true"
     inkscape:object-nodes="true"
     inkscape:snap-smooth-nodes="false"
     inkscape:zoom="3.6875"
     inkscape:cx="150.27241"
     inkscape:cy="72.1176"
     inkscape:window-x="67"
     inkscape:window-y="27"
     inkscape:window-maximized="1"
     inkscape:current-layer="g16" />
  <g
     id="g16">
    <g
       transform="matrix(0.05477791,0,0,0.05293118,203.93214,38.012615)"
       style="display:inline;stroke-width:18.57126617"
       id="g1990">
      <path
         inkscape:connector-curvature="0"
         id="path1980"
         d="m -3329.6775,1191.2529 c -3.3,-0.7295 -8.25,-2.0914 -11,-3.0263 -6.5296,-2.22 -17.5235,-7.7285 -23.3598,-11.7044 -6.7891,-4.6251 -17.7343,-15.4006 -22.6349,-22.2839 -7.9315,-11.1403 -14.2063,-25.7471 -16.4614,-38.3195 -1.009,-5.6253 -6.8504,-62.841 -34.0157,-333.18052 -7.7097,-76.725 -14.2413,-140.625 -14.5146,-142 -0.2733,-1.375 -10.3902,-101.5 -22.482,-222.5 -12.0918,-121 -25.6388,-256.45 -30.1044,-301 -4.4657,-44.55 -8.1101,-85.30938 -8.0988,-90.5764 0.046,-21.1697 5.1264,-35.77448 21.3349,-61.32662 8.8305,-13.92099 26.5673,-37.5733 39.4424,-52.59698 12.4475,-14.52473 41.3737,-43.58997 56.3943,-56.66529 60.1802,-52.38652 128.4831,-92.97992 207.5,-123.32021 55.7565,-21.40894 123.0777,-38.47562 187,-47.40657 39.3175,-5.49327 70.4341,-8.07747 117.4448,-9.75366 44.8784,-1.60016 93.3175,-0.30628 248.5552,6.63928 92.3809,4.13326 103.9655,4.51913 155,5.16296 96.3958,1.21608 162.7502,-3.91587 222.7094,-17.22469 84.4975,-18.75542 157.3542,-55.37978 228.7906,-115.01077 15.9691,-13.33005 23.5215,-20.14112 48.7017,-43.92105 18.962,-17.90759 26.0714,-22.6508 42.1403,-28.11533 24.1289,-8.20544 48.7089,-6.62798 71.796,4.60763 10.8914,5.30046 22.1926,13.63315 29.2582,21.57301 5.5805,6.27088 12.5489,16.93108 15.6471,23.93662 1.3226,2.99069 5.3409,14.78872 8.9296,26.21785 6.9964,22.28208 120.2614,392.25051 176.5799,576.78022 32.0173,104.90578 70.5285,230.8535 124.9076,408.5 12.7112,41.525 23.8226,79.55 24.6922,84.5 1.9683,11.2054 1.3135,26.6723 -1.609,38 -2.3057,8.937 -8.0755,21.6613 -13.735,30.2901 -4.5379,6.9187 -32.9067,35.9598 -58.8086,60.2022 -54.008,50.5478 -103.5418,90.0491 -157.3762,125.5012 -32.5617,21.4433 -61.8209,38.3501 -95.6238,55.2544 -58.6305,29.3201 -116.3298,50.6461 -180.491,66.71072 -60.3496,15.1102 -118.9161,23.8062 -193.509,28.7322 -25.295,1.6705 -122.7621,1.6656 -153.5,-0.01 -77.1406,-4.1993 -143.1782,-10.507 -247.5,-23.64 -58.7415,-7.395 -78.0844,-9.1379 -117.25,-10.56482 -56.4206,-2.0556 -119.973,2.29942 -176.25,12.07792 -46.0633,8.0037 -93.113,20.0571 -136.5,34.9692 -18.6645,6.4149 -52.1951,19.6788 -72,28.4813 -19.8299,8.8136 -54.231,26.2807 -73.5,37.3194 -30.1071,17.2476 -59.8232,37.0905 -80.9545,54.0574 -6.8261,5.4808 -15.1414,11.5828 -18.4783,13.5599 -7.9438,4.7066 -19.1901,8.9935 -28.775,10.9685 -9.3795,1.9326 -29.7672,1.9874 -38.2922,0.1028 z"
         style="fill:#fdeb00;stroke-width:18.57126617" />
      <path
         sodipodi:nodetypes="sscsscsssssscccsccsccssssssssssssccss"
         inkscape:connector-curvature="0"
         id="path1978"
         d="m -3474.6022,410.98828 c -0.3368,-2.6125 -8.9546,-87.775 -19.1507,-189.25 -10.1961,-101.475 -18.5503,-189.0149 -18.5648,-194.53311 -0.057,-21.55371 4.9459,-36.08273 21.3035,-61.86991 8.8305,-13.92099 26.5673,-37.5733 39.4424,-52.59698 12.4475,-14.52473 41.3737,-43.58997 56.3943,-56.66529 60.1802,-52.38652 128.4831,-92.97992 207.5,-123.32021 55.7565,-21.40894 123.0777,-38.47562 187,-47.40657 39.3175,-5.49327 70.4341,-8.07747 117.4448,-9.75366 44.8784,-1.60016 93.3175,-0.30628 248.5552,6.63928 92.3809,4.13326 103.9655,4.51913 155,5.16296 96.3958,1.21608 162.7502,-3.91587 222.7094,-17.22469 84.4975,-18.75542 157.3542,-55.37978 228.7906,-115.01077 15.9691,-13.33005 23.5215,-20.14112 48.7017,-43.92105 18.962,-17.90759 26.0714,-22.6508 42.1403,-28.11533 24.1289,-8.20544 48.7089,-6.62798 71.796,4.60763 10.884,5.29684 22.1795,13.62334 29.2654,21.57301 6.5342,7.33077 13.7464,18.95973 17.015,27.43469 2.4343,6.31203 81.0816,261.73683 81.0816,263.33091 0,1.35773 -31.0284,46.88626 -42.0284,61.66909 -14.4358,19.40013 -20.4679,26.95854 -35.5137,44.5 -41.0509,47.85993 -85.5752,87.37231 -134.9579,119.76606 -20.5119,13.45528 -38.455,23.67431 -61,34.74096 -23.5889,11.57908 -45.2951,20.54336 -70.5,29.11532 -47.2044,16.05378 -96.0482,26.82442 -151,33.29727 -30.408,3.5818 -57.065,5.41457 -98.3387,6.76118 -50.3824,1.64379 -119.7225,-0.2625 -205.6613,-5.65401 -12.925,-0.81087 -45.1,-2.83393 -71.5,-4.49567 -106.2142,-6.68566 -158.8609,-8.54216 -218.5,-7.70506 -45.1522,0.63375 -62.9475,1.48469 -99,4.73401 -73.9123,6.66151 -135.0518,19.136 -197.5,40.29655 -54.6284,18.51083 -106.6201,43.85289 -154.0528,75.08911 -22.0014,14.48878 -36.0443,24.70598 -56.4472,41.0692 -22.3592,17.9322 -44.6394,38.2693 -68.0263,62.09358 -24.0831,24.5336 -45.865,49.2371 -65.373,74.1415 -2.6927,3.4375 -5.2371,6.25 -5.6544,6.25 -0.4172,0 -1.0342,-2.1375 -1.371,-4.75 z"
         style="fill:#fd8b00;stroke-width:18.57126617" />
      <path
         sodipodi:nodetypes="cccccsscccscscscscsccssccscsccccccsccssccccc"
         inkscape:connector-curvature="0"
         id="path1976"
         d="m -3329.6775,1191.2529 c -3.3,-0.7295 -8.25,-2.0914 -11,-3.0263 -6.5296,-2.22 -17.5235,-7.7285 -23.3598,-11.7044 -6.7891,-4.6251 -17.7343,-15.4006 -22.6349,-22.2839 -7.928,-11.1354 -14.1991,-25.7306 -16.4649,-38.3195 -0.5623,-3.1243 -9.3408,-88.2555 -19.5079,-189.18052 -10.167,-100.925 -20.7917,-206.3354 -23.6104,-234.2454 l -5.1249,-50.7453 12.3299,-14.7547 c 20.6892,-24.7577 35.3402,-40.7844 57.8419,-63.2731 28.7737,-28.757 52.4241,-49.3997 83.031,-72.4715 24.4506,-18.4311 52.2789,-36.7004 78,-51.2072 15.7869,-8.9039 46.8517,-24.4558 62.5,-31.2892 81.5684,-35.6199 170.6202,-56.5696 274,-64.4595 38.7294,-2.9557 72.9898,-3.8311 126,-3.2194 65.0989,0.7512 91.0239,2.0092 210,10.1907 134.6472,9.259 168.8771,10.8382 235.5,10.8646 50.3675,0.02 73.3343,-0.8097 109.5,-3.9556 150.0805,-13.0552 267.9263,-57.93555 368.5,-140.33931 24.4703,-20.04943 51.5185,-46.0537 74.2711,-71.40475 24.8471,-27.68458 49.1847,-59.47959 73.4878,-96.00534 9.0811,-13.64825 16.8336,-24.44825 17.2278,-24 0.3942,0.44825 15.9115,50.54 34.4829,111.315 33.8605,110.80883 81.3067,265.9255 124.4908,407 12.7112,41.525 23.8226,79.55 24.6922,84.5 1.9683,11.2054 1.3135,26.6723 -1.609,38 -2.3057,8.937 -8.0755,21.6613 -13.735,30.2901 -4.5379,6.9187 -32.9067,35.9598 -58.8086,60.2022 -54.008,50.5478 -103.5418,90.0491 -157.3762,125.5012 -32.5617,21.4433 -61.8209,38.3501 -95.6238,55.2544 -58.6305,29.3201 -116.3298,50.6461 -180.491,66.71072 -60.3496,15.1102 -118.9161,23.8062 -193.509,28.7322 -25.295,1.6705 -122.7621,1.6656 -153.5,-0.01 -77.1406,-4.1993 -143.1782,-10.507 -247.5,-23.64 -58.7415,-7.395 -78.0844,-9.1379 -117.25,-10.56482 -56.4206,-2.0556 -119.973,2.29942 -176.25,12.07792 -46.0633,8.0037 -93.113,20.0571 -136.5,34.9692 -18.6645,6.4149 -52.1951,19.6788 -72,28.4813 -19.8299,8.8136 -54.231,26.2807 -73.5,37.3194 -30.1071,17.2476 -59.8232,37.0905 -80.9545,54.0574 -6.8261,5.4808 -15.1414,11.5828 -18.4783,13.5599 -7.9438,4.7066 -19.1901,8.9935 -28.775,10.9685 -9.3795,1.9326 -29.7672,1.9874 -38.2922,0.1028 z"
         style="fill:#004cfd;stroke-width:18.57126617" />
      <path
         sodipodi:nodetypes="cccccccccssscscccscsscccsccccccsccssccccc"
         inkscape:connector-curvature="0"
         id="path1974"
         d="m -3329.6775,1191.2529 c -3.3,-0.7295 -8.25,-2.0914 -11,-3.0263 -6.5296,-2.22 -17.5235,-7.7285 -23.3598,-11.7044 -6.7831,-4.6211 -17.7206,-15.3868 -22.7122,-22.3555 -5.4642,-7.6287 -11.8232,-20.8085 -14.4398,-29.9284 -1.1046,-3.85 -2.7585,-13.8383 -3.6754,-22.1963 -1.6604,-15.1362 -1.6588,-15.2034 0.3981,-17 1.1358,-0.992 7.5877,-8.1037 14.3376,-15.8037 14.9643,-17.0708 59.0401,-61.239 75.4515,-75.60992 54.0553,-47.3343 105.7553,-82.5057 164.3485,-111.8062 23.3281,-11.6656 39.7856,-19.0319 62.0945,-27.7932 69.9263,-27.4619 145.2981,-44.9155 232.057,-53.7366 45.9206,-4.6689 103.9682,-6.5306 168.2102,-5.3949 63.9209,1.1301 100.3168,3.3287 245.7898,14.8482 134.4693,10.6481 169.6169,12.4251 246.5,12.4628 60.3225,0.03 74.2875,-0.4602 114.5,-4.0148 62.4682,-5.5218 122.201,-17.3408 174.824,-34.5914 32.5225,-10.6613 58.5382,-21.4368 89.176,-36.9358 101.9466,-51.5727 189.6205,-133.0767 263.8305,-245.264 5.8808,-8.8903 12.5834,-19.2017 14.8947,-22.9142 2.3113,-3.7125 4.5715,-6.75 5.0227,-6.75 1.2817,0 46.2046,147.7382 47.9394,157.6583 1.9317,11.0458 1.2559,26.6025 -1.6437,37.8417 -2.3057,8.937 -8.0755,21.6613 -13.735,30.2901 -4.5379,6.9187 -32.9067,35.9598 -58.8086,60.2022 -54.008,50.5478 -103.5418,90.0491 -157.3762,125.5012 -32.5617,21.4433 -61.8209,38.3501 -95.6238,55.2544 -58.6305,29.3201 -116.3298,50.6461 -180.491,66.71072 -60.3496,15.1102 -118.9161,23.8062 -193.509,28.7322 -25.295,1.6705 -122.7621,1.6656 -153.5,-0.01 -77.1406,-4.1993 -143.1782,-10.507 -247.5,-23.64 -58.7415,-7.395 -78.0844,-9.1379 -117.25,-10.56482 -56.4206,-2.0556 -119.973,2.29942 -176.25,12.07792 -46.0633,8.0037 -93.113,20.0571 -136.5,34.9692 -18.6645,6.4149 -52.1951,19.6788 -72,28.4813 -19.8299,8.8136 -54.231,26.2807 -73.5,37.3194 -30.1071,17.2476 -59.8232,37.0905 -80.9545,54.0574 -6.8261,5.4808 -15.1414,11.5828 -18.4783,13.5599 -7.9438,4.7066 -19.1901,8.9935 -28.775,10.9685 -9.3795,1.9326 -29.7672,1.9874 -38.2922,0.1028 z"
         style="fill:#730686;stroke-width:18.57126617" />
      <path
         sodipodi:nodetypes="csccssssssssscccccsccssssssssssccc"
         inkscape:connector-curvature="0"
         id="path1972"
         d="m -3495.5409,189.5318 c -0.3312,-1.81144 -4.0176,-37.26852 -8.192,-78.79352 -8.4811,-84.36645 -8.8028,-92.15497 -4.4578,-107.91169 3.0765,-11.15656 10.6942,-25.90514 22.3788,-43.32712 18.878,-28.14774 38.9417,-51.93129 67.3511,-79.83845 10.3308,-10.14815 24.4083,-23.20949 31.2833,-29.02519 59.8605,-50.63725 129.4828,-90.68272 209,-120.21309 61.7374,-22.92746 133.7569,-39.49786 207,-47.62698 28.5207,-3.16545 54.07,-4.91928 89.2764,-6.12833 46.7903,-1.60687 79.2749,-0.64491 289.2236,8.56474 104.3272,4.57644 176.6001,4.72054 234,0.46657 85.1436,-6.31009 153.6007,-23.41088 216,-53.95742 21.8156,-10.67946 37.9556,-19.90633 58.5,-33.44309 35.3615,-23.29977 65.4259,-47.86614 103.4847,-84.55995 8.2716,-7.975 17.6478,-16.22902 20.8358,-18.34228 8.7691,-5.81271 21.4047,-11.38532 31.3025,-13.80519 12.4438,-3.0423 30.4782,-3.05963 42.684,-0.041 17.9317,4.43468 31.4951,11.83957 44.0277,24.03673 13.902,13.52988 20.3563,25.37688 28.5033,52.31766 2.7719,9.16624 5.3217,18.16846 5.6662,20.00493 0.5699,3.03784 -0.4875,5.00728 -11.7232,21.8341 -64.0288,95.89047 -131.8246,162.89207 -215.281,212.75895 -25.9355,15.497 -62.5485,33.00326 -91.1015,43.55965 -65.7323,24.30199 -128.4647,36.92208 -217.3985,43.73477 -22.3181,1.70966 -123.3614,2.35521 -159.3519,1.01807 -31.9603,-1.18741 -70.7104,-3.19249 -146.1481,-7.56227 -83.0252,-4.80929 -105.4966,-5.66351 -163.5,-6.21519 -59.4532,-0.56547 -88.2589,0.16625 -128,3.25143 -61.2697,4.75649 -120.4254,15.03778 -172.5,29.98058 -32.9089,9.4432 -59.5565,19.10363 -91.2615,33.0845 -51.6777,22.78817 -106.0284,56.54447 -152.7385,94.86325 -44.1275,36.20014 -87.5971,81.23385 -126.9533,131.52131 -5.3806,6.875 -10.126,12.63208 -10.5453,12.79352 -0.4194,0.16143 -1.0335,-1.18857 -1.3648,-3 z"
         style="fill:#e30402;stroke-width:18.57126617" />
      <path
         inkscape:connector-curvature="0"
         id="path1970"
         d="m -3429.1775,863.08928 c 0,-0.357 -4.9861,-50.3163 -11.0802,-111.0208 l -11.0802,-110.3716 12.3088,-14.7293 c 20.6672,-24.7316 35.3252,-40.7654 57.8206,-63.2478 28.7737,-28.757 52.4241,-49.3997 83.031,-72.4715 24.4506,-18.4311 52.2789,-36.7004 78,-51.2072 15.7869,-8.9039 46.8517,-24.4558 62.5,-31.2892 81.5684,-35.6199 170.6202,-56.5696 274,-64.4595 38.7294,-2.9557 72.9898,-3.8311 126,-3.2194 65.0989,0.7512 91.0239,2.0092 210,10.1907 134.6472,9.259 168.8771,10.8382 235.5,10.8646 50.3675,0.02 73.3343,-0.8097 109.5,-3.9556 150.0805,-13.0552 267.9263,-57.93555 368.5,-140.33931 24.4703,-20.04943 51.5185,-46.0537 74.2711,-71.40475 24.8471,-27.68458 49.1847,-59.47959 73.4878,-96.00534 9.0811,-13.64825 16.8336,-24.44825 17.2278,-24 0.6666,0.75791 66.2557,214.7414 67.5445,220.36277 0.6594,2.87631 0.5526,3.05711 -20.6425,34.95223 -51.5003,77.4994 -110.4136,140.4589 -176.3887,188.5034 -82.6481,60.1861 -178.5501,97.6103 -292,113.9481 -70.8705,10.206 -152.7532,12.8094 -252.5,8.0281 -44.6237,-2.139 -63.9125,-3.4157 -166,-10.9873 -124.8943,-9.2631 -149.3425,-10.491 -222.8128,-11.1912 -73.367,-0.6991 -110.4126,0.8269 -164.1872,6.7632 -72.2898,7.9803 -141.1558,23.8758 -202,46.6253 -36.3009,13.5727 -79.8899,34.1971 -111.5,52.7567 -18.2862,10.7365 -44.5253,27.9143 -62,40.5891 -14.8523,10.7726 -37.8039,28.9449 -51,40.38 -29.8028,25.8257 -65.2675,61.5676 -92.1147,92.8346 -6.4934,7.5625 -12.3865,13.75 -13.0958,13.75 -0.7092,0 -1.2895,-0.2921 -1.2895,-0.649 z"
         style="fill:#007e26;stroke-width:18.57126617" />
    </g>
    <polygon
       points="20.03,128 8.99,18.81 17.94,17.9 29.08,128 "
       style="fill:#5da5b0"
       id="polygon4" />
    <circle
       cx="13.46"
       cy="17.33"
       r="8.0799999"
       style="fill:#5da5b0"
       id="circle6" />
    <path
       inkscape:connector-curvature="0"
       id="path10"
       style="fill:#000000;fill-opacity:0.18039216"
       d="m 26.15,99.74 c 1.27,-1 11.78,-8.89 28.01,-8.89 2.21,0 4.45,0.14 6.68,0.43 8.12,1.04 14.05,1.51 19.23,1.51 16.58,0 28.84,-5.16 41,-17.25 1.33,-1.32 1.8,-3.22 1.25,-4.98 l -1.99,-6.5 c -1.27,3.74 -3.81,8.5 -8.02,12.28 -5.69,5.1 -11.93,8.6 -21.31,9.59 -14.51,1.53 -25.6,-4.55 -36.44,-8.68 -11.27,-4.3 -30.57,0.34 -30.57,0.34 z" />
    <path
       d="M43.42,21.41c11.52,0.46,25.57,5.55,38.12,4.39c10.72-0.99,11.3-5.11,15.19-7.93 c1.87-1.35,4.6-1.3,5.25,0.95l17.22,47.9c0,0,0,0,0.45-1.03c0.45-1.03,0.6-1.64,0.6-1.64v0l-15.9-50.13 c-0.54-1.68-1.95-2.98-3.72-3.41c-0.88-0.2-1.77-0.19-2.64,0.03c-0.92,0.24-1.74,0.77-2.42,1.42c-8.32,7.98-15.64,9.5-26.21,9.5 c-3.22,0-6.76-0.15-10.51-0.31c-2.94-0.13-5.99-0.26-9.3-0.34c-0.58-0.01-1.15-0.02-1.7-0.02c-1.56,0-3.05,0-4.48,0.15 C37.68,21.56,41.31,21.32,43.42,21.41z"
       style="fill:#ffffff;fill-opacity:0.11372549"
       id="path14" />
  </g>
</svg>
