<?xml version="1.0" encoding="UTF-8" standalone="no"?>
<svg
   xmlns:dc="http://purl.org/dc/elements/1.1/"
   xmlns:cc="http://creativecommons.org/ns#"
   xmlns:rdf="http://www.w3.org/1999/02/22-rdf-syntax-ns#"
   xmlns:svg="http://www.w3.org/2000/svg"
   xmlns="http://www.w3.org/2000/svg"
   xmlns:xlink="http://www.w3.org/1999/xlink"
   xmlns:sodipodi="http://sodipodi.sourceforge.net/DTD/sodipodi-0.dtd"
   xmlns:inkscape="http://www.inkscape.org/namespaces/inkscape"
   width="128"
   height="128"
   style="enable-background:new 0 0 128 128;"
   version="1.1"
   id="svg18"
   sodipodi:docname="emoji_u1f9d6_200d_2642.svg"
   inkscape:version="0.92.2 (5c3e80d, 2017-08-06)">
  <metadata
     id="metadata24">
    <rdf:RDF>
      <cc:Work
         rdf:about="">
        <dc:format>image/svg+xml</dc:format>
        <dc:type
           rdf:resource="http://purl.org/dc/dcmitype/StillImage" />
        <dc:title />
      </cc:Work>
    </rdf:RDF>
  </metadata>
  <defs
     id="defs22">
    <clipPath
       id="SVGID_2_">
      <use
         height="100%"
         width="100%"
         y="0"
         x="0"
         style="overflow:visible"
         xlink:href="#SVGID_1_"
         id="use5" />
    </clipPath>
    <rect
       id="SVGID_1_"
       height="120"
       width="120"
       x="4"
       y="4" />
    <clipPath
       id="SVGID_2_-7">
      <use
         height="100%"
         width="100%"
         y="0"
         x="0"
         style="overflow:visible"
         xlink:href="#SVGID_1_"
         id="use5-0" />
    </clipPath>
    <clipPath
       clipPathUnits="userSpaceOnUse"
       id="clipPath1379">
      <use
         id="use1381"
         xlink:href="#SVGID_1_"
         style="overflow:visible"
         x="0"
         y="0"
         width="100%"
         height="100%"
         transform="translate(-121.23823,4)" />
    </clipPath>
  </defs>
  <sodipodi:namedview
     pagecolor="#ffffff"
     bordercolor="#666666"
     borderopacity="1"
     objecttolerance="10"
     gridtolerance="10"
     guidetolerance="10"
     inkscape:pageopacity="0"
     inkscape:pageshadow="2"
     inkscape:window-width="1853"
     inkscape:window-height="1016"
     id="namedview20"
     showgrid="false"
     inkscape:zoom="2.6074563"
     inkscape:cx="-58.428993"
     inkscape:cy="63.824867"
     inkscape:window-x="67"
     inkscape:window-y="27"
     inkscape:window-maximized="1"
     inkscape:current-layer="图层_1"
     inkscape:object-paths="true">
    <inkscape:grid
       type="xygrid"
       id="grid885" />
  </sodipodi:namedview>
  <g
     id="图层_1">
    <g
       id="g10"
       clip-path="url(#SVGID_2_)"
       style="opacity:0.45;stroke-width:0.9375"
       transform="matrix(1.0666667,0,0,1.0666667,-4.2666668,-4.2666711)">
      <path
         id="path8"
         style="fill:#83d3f7;stroke-width:0.9375"
         d="m 18.04,143.5 c -11,-1 -23,-1 -32,-10 -5,-5 -9,-11 -11,-18 -2,-8 -4,-16 -3,-24 1,-7 3,-14 6,-21 2,-4 5,-8 8,-11 7,-6 14,-11 22,-15 16,-8 15,-28 3,-39 -1,-1 -2,-1 -3,-2 -1,-2 -3,-5 -2,-6 2,-10 15,-3 23,-4 5,0 10,3 14,6 12,9 18,23 18,38 -1,7 -1,15 -4,22 -2,4 -4,8 -6,12 -1,2 -2,3 -4,5 -5,4 -9,8 -14,11 -8,4 -18,8 -20,18 -3,13 8,22 14,32 0,1 0,2 0,3 -2,2 -5,4 -9,3 z"
         inkscape:connector-curvature="0" />
    </g>
    <g
       id="g14"
       clip-path="url(#SVGID_2_)"
       style="opacity:0.45;stroke-width:0.9375"
       transform="matrix(1.0666667,0,0,1.0666667,-4.2666668,-4.2666711)">
      <path
         id="path12"
         style="fill:#3bbcf7;stroke-width:0.9375"
         d="m 93.38,-6.67 c 10,0 20,0 30,3 28,7 36,40 33,66 -1,5 -2,10 -4,15 -4,9 -9,16 -15,23 -9,9 -20,13 -31,21 -21,14 -6,40 10,53 1,2 4,6 1,6 -14,4 -28,3 -42,-2 -4,-1 -8,-3 -11,-6 -12,-12 -18,-27 -19,-43 0,-8 0,-15 2,-23 1,-5 3,-9 5,-14 3,-6 7,-12 12,-17 10,-8 20,-13 31,-21 21,-14 7,-40 -10,-53 -1,-1 -2,-3 -2,-4 1,-4 6,-4 10,-4 z"
         inkscape:connector-curvature="0" />
    </g>
    <g
       id="g1426"
       transform="translate(119.9847)">
      <path
         inkscape:connector-curvature="0"
         id="XMLID_1678_-6"
         d="m -105.9847,118.09 v 9.89 h 100 v -9.89 c 0,-15.17 -24.54,-22.87 -49.62,-22.84 -24.92,0.03 -50.38,6.78 -50.38,22.84 z"
         style="opacity:1;vector-effect:none;fill:#eeeeee;fill-opacity:1;stroke-width:1;stroke-linecap:butt;stroke-linejoin:miter;stroke-miterlimit:4;stroke-dasharray:none;stroke-dashoffset:0;stroke-opacity:1" />
      <g
         transform="translate(1.32853)"
         clip-path="url(#clipPath1379)"
         id="g1377">
        <path
           d="m -58.91823,89.75 c -10.38,-0.75 -19.71,2.28 -24.19,8.67 -5,7.12 2.56,24.47 7.58,33.17 6.5,11.25 14.49,9.74 14.46,3.29 -0.03,-7.3 -13.3,-20.37 -10.12,-30.88 2,-6.62 14.3,-6.55 12.36,-6.33 6.32,-0.7 -0.09,-7.92 -0.09,-7.92 z"
           style="opacity:1;vector-effect:none;fill:#BDBDBD;fill-opacity:1;stroke:none;stroke-width:2;stroke-linecap:round;stroke-linejoin:round;stroke-miterlimit:10;stroke-dasharray:none;stroke-dashoffset:0;stroke-opacity:1"
           id="path1089"
           inkscape:connector-curvature="0" />
        <path
           d="m -55.79823,89.75 c 10.38,-0.75 19.71,2.28 24.19,8.67 5,7.12 -2.56,24.47 -7.58,33.17 -6.5,11.25 -14.49,9.74 -14.46,3.29 0.03,-7.3 13.3,-20.37 10.12,-30.88 -2,-6.62 -14.3,-6.55 -12.36,-6.33 -6.32,-0.7 0.09,-7.92 0.09,-7.92 z"
           style="fill:#BDBDBD;fill-opacity:1;stroke:none;stroke-width:2;stroke-linecap:round;stroke-linejoin:round;stroke-miterlimit:10"
           id="path1093"
           inkscape:connector-curvature="0" />
      </g>
      <path
         id="path1408"
         d="m -56.03125,97.306641 c -0.338271,0.150312 -0.772142,0.253516 -1.271484,0.324218 0.146903,-0.159886 -10.689423,0.18865 -12.556641,6.369141 -2.334293,7.71491 4.184253,16.80128 7.833984,23.98047 h 11.992188 c 3.650348,-7.1791 10.168214,-16.26577 7.833984,-23.98047 -1.867064,-6.179983 -12.701723,-6.52893 -12.55664,-6.369141 -0.500903,-0.0708 -0.936439,-0.173375 -1.275391,-0.324218 z"
         style="opacity:1;vector-effect:none;fill:#70534A;fill-opacity:1;stroke-width:1;stroke-linecap:butt;stroke-linejoin:miter;stroke-miterlimit:4;stroke-dasharray:none;stroke-dashoffset:0;stroke-opacity:1"
         inkscape:connector-curvature="0" />
      <path
         inkscape:connector-curvature="0"
         id="XMLID_791_-7"
         d="m -56.0347,86.25 h -9.08 v 9.59 c 0,4.34 3.7,7.86 8.26,7.86 h 1.65 c 4.56,0 8.26,-3.52 8.26,-7.86 v -9.59 z"
         style="fill:#35201A" />
      <path
         inkscape:connector-curvature="0"
         id="XMLID_6_"
         d="m -23.7947,51.47 c 0,0 5.89,1.02 5.89,7.37 0,5.6 -4.3,7.81 -8.6,7.81 V 51.47 Z"
         style="fill:#563E37" />
      <path
         inkscape:connector-curvature="0"
         id="XMLID_5_"
         d="m -88.0747,51.47 c 0,0 -5.89,1.02 -5.89,7.37 0,5.6 4.3,7.81 8.6,7.81 V 51.47 Z"
         style="fill:#563E37" />
      <path
         inkscape:connector-curvature="0"
         id="XMLID_4_"
         d="m -55.9347,9.91 c -25.4,0 -32.04,19.69 -32.04,47.35 0,28.68 18.43,36.1 32.04,36.1 13.41,0 32.04,-7.2 32.04,-36.1 0.01,-27.67 -6.64,-47.35 -32.04,-47.35 z"
         style="fill:#70534A" />
      <path
         inkscape:connector-curvature="0"
         id="XMLID_1_"
         d="m -55.1647,6.29 c 0,0 -0.5,-0.02 -0.71,-0.01 -0.21,0 -0.71,0.01 -0.71,0.01 -27.41,0.53 -35.67,17.02 -35.67,28.45 0,11.11 0.01,19.28 0.01,19.28 0,0 0.44,-0.45 1.24,-1.08 0.86,-0.67 1.81,-1.04 1.81,-1.04 l 1.38,9.28 9.13,-19.08 c 0.06,-0.12 0.18,-0.19 0.31,-0.17 l 5.41,0.6 c 5.44,0.6 10.91,0.9 16.37,0.91 v 0.01 c 0.24,0 0.47,-0.01 0.71,-0.01 0.24,0 0.47,0.01 0.71,0.01 v -0.01 c 5.46,-0.02 10.93,-0.31 16.37,-0.91 l 5.41,-0.6 c 0.13,-0.01 0.25,0.06 0.31,0.17 l 9.13,19.08 1.38,-9.28 c 0,0 0.95,0.38 1.81,1.04 0.81,0.63 1.24,1.08 1.24,1.08 0,0 0.01,-8.16 0.01,-19.28 0.02,-11.43 -8.24,-27.92 -35.65,-28.45 z"
         style="fill:#232020" />
      <path
         inkscape:connector-curvature="0"
         id="XMLID_592_-5"
         d="m -63.7447,58.47 c 0.41,0.17 0.4,0.93 -0.22,2.23 -0.89,1.84 -2.29,2.82 -3.69,3.26 -1.62,0.51 -4.66,0.7 -7.06,-1.63 -2.39,-2.31 -1.2,-3.34 -0.28,-2.83 0.94,0.51 2.52,1.16 4.02,1.29 1.55,0.13 3.62,-0.34 4.92,-1.02 1.1,-0.58 1.84,-1.5 2.31,-1.3 z"
         style="fill:#232020" />
      <path
         inkscape:connector-curvature="0"
         id="XMLID_591_-3"
         d="m -48.6347,58.51 c -0.41,0.18 -0.4,0.93 0.24,2.22 0.9,1.83 2.31,2.8 3.71,3.23 1.62,0.5 4.66,0.67 7.05,-1.68 2.37,-2.33 1.18,-3.34 0.26,-2.83 -0.93,0.52 -2.52,1.18 -4.01,1.32 -1.55,0.14 -3.62,-0.31 -4.93,-0.98 -1.11,-0.57 -1.85,-1.49 -2.32,-1.28 z"
         style="fill:#232020" />
      <path
         inkscape:connector-curvature="0"
         id="XMLID_2368_-5"
         d="m -51.6347,68.69 c -1.57,0.45 -3.2,0.66 -4.46,0.66 -1.26,0 -2.89,-0.22 -4.46,-0.66 -0.67,-0.19 -0.94,0.45 -0.7,0.87 0.5,0.88 2.51,2.65 5.16,2.65 2.65,0 4.66,-1.77 5.16,-2.65 0.24,-0.43 -0.02,-1.06 -0.7,-0.87 z"
         style="fill:#35201A" />
      <path
         inkscape:connector-curvature="0"
         style="opacity:1;vector-effect:none;fill:#261819;fill-opacity:1;stroke-width:1;stroke-linecap:butt;stroke-linejoin:miter;stroke-miterlimit:4;stroke-dasharray:none;stroke-dashoffset:0;stroke-opacity:1"
         d="m -46.864701,78.465 c -1.29,0 -9.229999,0 -9.229999,0 0,0 -7.94,0 -9.23,0 -1.06,0 -1.509999,0.71 -0.81,1.78 0.98,1.49 4.61,4.36 10.04,4.36 5.43,0 9.059999,-2.87 10.039999,-4.36 0.7,-1.07 0.25,-1.78 -0.81,-1.78 z"
         id="XMLID_31_-7" />
    </g>
    <g
       transform="matrix(1.0666667,0,0,1.0666667,-182.45423,-11.787575)"
       id="g1295"
       style="stroke-width:0.9375">
      <g
         id="g116"
         clip-path="url(#SVGID_2_-7)"
         style="opacity:0.35;stroke-width:0.9375"
         transform="translate(167.05084,7.0508477)">
        <path
           id="path114"
           style="fill:#ffffff;stroke-width:0.9375"
           d="m 97.04,156.5 c -8,-1 -17,1 -24,-5 -11,-9 -17,-22 -17,-36 0,-7 2,-14 5,-21 2,-4 5,-8 8,-11 4.79,-4.79 11.53,-8.71 17.52,-11.77 5.74,-2.94 10.61,-5.51 12.6,-12.26 1.69,-5.73 0.6,-12.03 -2.07,-17.38 -1.64,-3.28 -3.84,-6.25 -6.32,-8.95 -2.05,-2.24 -3.89,-3.98 -6.06,-6.94 -2.72,-3.72 4.61,-3.29 7.66,-3.21 6.14,0.17 11.67,1.66 17.08,4.62 9.22,5.05 15.16,14.19 18.15,24.07 1.93,6.37 2.79,13.15 2.44,19.81 -2.04,14.29 -11.23,24.77 -23.6,31.13 -6.69,3.45 -13.86,7.05 -17.68,13.54 -8.82,14.97 6.52,26.47 14.27,37.33 0,0 -1,1 -1,2 -0.99,1.01 -2.99,1.01 -4.99,1.01 z"
           inkscape:connector-curvature="0" />
      </g>
      <g
         id="g120"
         clip-path="url(#SVGID_2_-7)"
         style="opacity:0.45;stroke-width:0.9375"
         transform="translate(167.05084,7.0508477)">
        <path
           id="path118"
           style="fill:#ffffff;stroke-width:0.9375"
           d="m 25.04,152.75 c -12,-2 -22,-11 -24,-23 -3,-9 -2,-18 4,-27 4,-5 8,-10 13,-13 2,-1 3,-1 5,-2 2,-2 4,-4 6,-6 5,-8 -2,-15 -4,-23 0,-1 1,-2 2,-3 7,-5 15,0 21,5 5,4 9,10 10,16 3,10 1,19 -4,28 -1,2 -3,3 -4,5 -6,6 -15,8 -20,15 -4,7 0,14 3,20 2,5 -3,10 -8,8 z"
           inkscape:connector-curvature="0" />
      </g>
    </g>
  </g>
</svg>
