<?xml version="1.0" encoding="UTF-8" standalone="no"?>
<svg
   xmlns:dc="http://purl.org/dc/elements/1.1/"
   xmlns:cc="http://creativecommons.org/ns#"
   xmlns:rdf="http://www.w3.org/1999/02/22-rdf-syntax-ns#"
   xmlns:svg="http://www.w3.org/2000/svg"
   xmlns="http://www.w3.org/2000/svg"
   xmlns:xlink="http://www.w3.org/1999/xlink"
   xmlns:sodipodi="http://sodipodi.sourceforge.net/DTD/sodipodi-0.dtd"
   xmlns:inkscape="http://www.inkscape.org/namespaces/inkscape"
   width="128"
   height="128"
   style="enable-background:new 0 0 128 128;"
   version="1.1"
   id="svg67"
   sodipodi:docname="emoji_u1f9d5.svg"
   inkscape:version="0.92.2 (5c3e80d, 2017-08-06)">
  <metadata
     id="metadata73">
    <rdf:RDF>
      <cc:Work
         rdf:about="">
        <dc:format>image/svg+xml</dc:format>
        <dc:type
           rdf:resource="http://purl.org/dc/dcmitype/StillImage" />
      </cc:Work>
    </rdf:RDF>
  </metadata>
  <defs
     id="defs71">
    <rect
       id="SVGID_3_"
       height="120"
       width="120"
       x="4"
       y="4" />
    <clipPath
       id="SVGID_4_-3">
      <use
         height="100%"
         width="100%"
         y="0"
         x="0"
         style="overflow:visible"
         xlink:href="#SVGID_3_"
         id="use5-6" />
    </clipPath>
  </defs>
  <sodipodi:namedview
     pagecolor="#ffffff"
     bordercolor="#666666"
     borderopacity="1"
     objecttolerance="10"
     gridtolerance="10"
     guidetolerance="10"
     inkscape:pageopacity="0"
     inkscape:pageshadow="2"
     inkscape:window-width="1853"
     inkscape:window-height="1016"
     id="namedview69"
     showgrid="false"
     inkscape:zoom="3.6875"
     inkscape:cx="72.894263"
     inkscape:cy="83.763067"
     inkscape:window-x="67"
     inkscape:window-y="27"
     inkscape:window-maximized="1"
     inkscape:current-layer="g1122"
     inkscape:snap-bbox="true"
     inkscape:snap-bbox-edge-midpoints="true"
     showguides="true"
     inkscape:guide-bbox="true" />
  <g
     id="Layer_4"
     transform="translate(12.1)">
    <g
       id="g47">
      <path
         d="M 59.5,110.88 H 44.3 c -2.84,0 -5.16,-2.32 -5.16,-5.16 v -7.69 c 0,-1.65 1.35,-3 3,-3 h 19.52 c 1.65,0 3,1.35 3,3 v 7.69 c 0,2.84 -2.33,5.16 -5.16,5.16 z"
         style="fill:#414042"
         id="path44"
         inkscape:connector-curvature="0" />
      <path
         id="XMLID_9_"
         d="M 8.33,118.03 V 128 h 87.14 v -9.97 c 0,-12.53 -17.12,-16.39 -34.47,-17.28 -0.08,0.75 -0.25,6.81 -9.23,6.81 -8.77,0 -9.07,-5.4 -9.27,-6.98 -17.09,0.81 -34.17,4.46 -34.17,17.45 z"
         style="fill:#414042"
         inkscape:connector-curvature="0" />
    </g>
  </g>
  <g
     id="Layer_1"
     transform="translate(12.1)">
    <path
       id="XMLID_33_"
       d="m 51.69,90.18 h -9.08 l -0.14,10.4 c 0,4.53 3.84,8.88 8.4,8.88 h 1.65 c 4.56,0 8.45,-4.18 8.45,-8.71 l -0.2,-10.57 z"
       style="fill:#C48E6A"
       inkscape:connector-curvature="0" />
    <path
       id="XMLID_32_"
       d="m 51.64,13.51 c -24.35,0 -30.72,18.87 -30.72,45.39 0,26.51 18.89,34.6 30.72,34.6 11.83,0 30.72,-8.09 30.72,-34.6 0,-26.52 -6.37,-45.39 -30.72,-45.39 z"
       style="fill:#E0BB95"
       inkscape:connector-curvature="0" />
    <path
       id="XMLID_31_"
       d="m 60.97,78.05 c -1.29,0 -9.23,0 -9.23,0 0,0 -7.94,0 -9.23,0 -1.06,0 -1.51,0.71 -0.81,1.78 0.98,1.49 4.61,4.36 10.04,4.36 5.43,0 9.06,-2.87 10.04,-4.36 0.7,-1.07 0.25,-1.78 -0.81,-1.78 z"
       style="fill:#5D4037"
       inkscape:connector-curvature="0" />
    <g
       id="XMLID_28_">
      <path
         id="XMLID_30_"
         d="m 41.25,60.66 c 0,2.84 -1.9,5.15 -4.26,5.15 -2.35,0 -4.27,-2.3 -4.27,-5.15 0,-2.85 1.91,-5.15 4.27,-5.15 2.35,0 4.26,2.3 4.26,5.15"
         style="fill:#5D4037"
         inkscape:connector-curvature="0" />
      <path
         id="XMLID_29_"
         d="m 62.24,60.66 c 0,2.84 1.9,5.15 4.27,5.15 2.35,0 4.26,-2.3 4.26,-5.15 0,-2.85 -1.91,-5.15 -4.26,-5.15 -2.37,0 -4.27,2.3 -4.27,5.15"
         style="fill:#5D4037"
         inkscape:connector-curvature="0" />
    </g>
    <path
       id="XMLID_27_"
       d="m 56.15,70.2 c -1.57,0.44 -3.2,0.66 -4.46,0.66 -1.26,0 -2.89,-0.22 -4.46,-0.66 -0.67,-0.19 -0.94,0.45 -0.69,0.87 0.5,0.88 2.5,2.64 5.15,2.64 2.65,0 4.65,-1.77 5.15,-2.64 0.24,-0.42 -0.02,-1.06 -0.69,-0.87 z"
       style="fill:#C48E6A"
       inkscape:connector-curvature="0" />
    <g
       id="g1122"
       transform="translate(125.68027,-19.479493)">
      <path
         transform="translate(-138.31009,18.169492)"
         inkscape:connector-curvature="0"
         d="M 105.22,47.51 C 103.36,23.55 92.06,8.01 64.03,8 35.99,8.01 23,23.68 23,47.17 c 0,21.99 4.06,37.42 10.97,47.5 -6.38,2.8 -10.22,8.34 -9.47,13.84 1.75,12.84 16.15,19.49 39.5,19.49 48.07,0 41.67,-74.73 41.22,-80.49 z M 64.03,36.69 c 0,0 25.76,12.63 29.89,31.25 0,0 -8.89,24.4 -29.89,24.4 -21,0 -29.89,-24.4 -29.89,-24.4 C 37.69,49.2 64.03,36.69 64.03,36.69 Z"
         style="fill:#7b1fa2"
         clip-path="none"
         id="path77"
         sodipodi:nodetypes="ccsccscccscc" />
      <path
         style="fill:#541e69"
         clip-path="url(#SVGID_4_-3)"
         d="m 94.140625,17.349609 c 0,0 13.459685,28.62086 3.179687,53.63086 -5.84,14.22 -18.1193,37.788361 -50.519531,27.039062 -12.269769,-4.070696 -20.669922,-26 -20.669922,-26 0,0 2.162052,12.973052 9.015625,22.59375 2.553973,3.585137 10.893966,11.178459 19.131088,12.695819 10.818549,1.99288 21.392769,-0.12095 28.901652,-6.29546 C 87.702377,97.294269 93.617088,90.127651 96.025391,85.189453 99.147889,78.786804 101.6382,72.930265 102.4707,69.019531 109.14015,37.689413 94.140625,17.349609 94.140625,17.349609 Z"
         transform="translate(-137.78027,19.479493)"
         id="path79"
         inkscape:connector-curvature="0"
         sodipodi:nodetypes="ccscsssssc" />
    </g>
  </g>
</svg>
