<svg width="128" height="128" style="enable-background:new 0 0 128 128;" xmlns="http://www.w3.org/2000/svg" xmlns:xlink="http://www.w3.org/1999/xlink">
  <path id="path2" d="M 16.01,32.9 C 35.29,4.02 67.5,-9.15 101.63,8.22 c 22.84,11.63 30.79,39.22 20.86,71.64 -4.09,13.37 6.14,15.64 5.48,22.74 -1.29,13.88 -28.49,25.27 -63.64,25.27 C 29.17,127.87 1.61,116.51 0.67,102.6 -1.23,74.54 3.71,51.35 16.01,32.9" style="fill:#fcc21b"/>
  <path id="path12" d="m 43.83,32.05 c -5.43,-1.47 -6.38,-7.72 -3.86,-12.17 1.99,-3.11 5.31,-4.7 8.11,-4.34 2.94,0.4 5.75,2.94 5.88,6.77 0.21,5.69 -4.11,11.26 -10.13,9.74 z" style="fill:#2f2f2f"/>
  <path id="path14" d="m 74.33,36.68 c 3.94,4.42 10.37,2.38 13.45,-2.1 2.06,-3.35 2.05,-7.23 0.39,-9.71 -1.76,-2.57 -5.51,-4.02 -9.24,-2.34 -5.54,2.51 -8.87,9.2 -4.6,14.15 z" style="fill:#2f2f2f"/>
  <path id="path4600-6" d="m 50.582128,72.694232 c 3.731629,0.831857 7.597828,-2.765244 8.627733,-8.03002 1.033756,-5.28446 -1.164617,-10.229752 -4.896239,-11.061655 -3.739955,-0.833737 -7.61448,2.761485 -8.648265,8.045938 -1.029875,5.264783 1.176826,10.211955 4.916771,11.045737 z" style="opacity:1;vector-effect:none;fill:#ed6c30;fill-opacity:1;stroke-width:1.04014409;stroke-linecap:butt;stroke-linejoin:miter;stroke-miterlimit:4;stroke-dasharray:none;stroke-dashoffset:0;stroke-opacity:1"/>
  <path id="path4935" d="m 53.371458,9.2727423 c -0.768019,-0.059789 -2.924304,0.1954441 -4.586547,0.6692635 -1.65638,0.4721482 -3.015833,0.5360352 -4.046243,0.6076522 -1.700717,0.118204 -2.694092,-0.120044 -3.270092,0.03429 -1.251663,0.335382 -1.789112,2.127072 -0.327263,2.610726 0.712939,0.235876 3.153042,0.703312 5.883229,0.513557 3.506993,-0.243744 5.84148,-0.512884 6.781923,-0.983224 1.424783,-0.712571 1.219903,-3.3234388 -0.435008,-3.4522717 z" style="fill:#2f2f2f"/>
  <path id="path4954" d="m 78.920587,12.945689 c -0.671603,0.229935 -1.381063,0.961844 -1.320786,2.02182 0.05336,0.938413 1.680312,2.286324 2.280382,2.755038 1.337803,1.044956 3.935374,1.889936 5.307702,2.011691 2.578232,0.228744 4.430803,-0.189926 5.737123,-0.653379 1.148463,-0.407449 1.257961,-2.761432 -0.649775,-2.613558 -1.22408,0.09488 -3.333057,0.430209 -4.949621,-0.03566 -1.252396,-0.360926 -3.24191,-1.624699 -4.460038,-3.041199 -0.408691,-0.475246 -1.415196,-0.626131 -1.944987,-0.444748 z" style="fill:#2f2f2f"/>
</svg>
